<?xml version="1.0" encoding="utf-8"?>
<!-- Generator: Adobe Illustrator 16.0.0, SVG Export Plug-In . SVG Version: 6.00 Build 0)  -->
<!DOCTYPE svg PUBLIC "-//W3C//DTD SVG 1.1//EN" "http://www.w3.org/Graphics/SVG/1.1/DTD/svg11.dtd">
<svg version="1.1" id="Capa_1" xmlns="http://www.w3.org/2000/svg" xmlns:xlink="http://www.w3.org/1999/xlink" x="0px" y="0px"
	 width="1031.811px" height="728.5px" viewBox="0 0 1031.811 728.5" enable-background="new 0 0 1031.811 728.5"
	 xml:space="preserve">
<g>
	<g>
		<path fill="#217D92" d="M677.585,278.688c0,103.63-84.011,187.643-187.648,187.643c-103.634,0-187.648-84.013-187.648-187.643
			c0-103.638,84.014-187.651,187.648-187.651C593.574,91.037,677.585,175.05,677.585,278.688z"/>
		<path fill="#FFFFFF" d="M489.937,468.179c-104.489,0-189.495-85.007-189.495-189.491c0-104.49,85.006-189.497,189.495-189.497
			c104.489,0,189.493,85.007,189.493,189.497C679.43,383.172,594.426,468.179,489.937,468.179z M489.937,92.883
			c-102.452,0-185.803,83.351-185.803,185.805c0,102.451,83.351,185.797,185.803,185.797c102.45,0,185.802-83.347,185.802-185.797
			C675.739,176.234,592.387,92.883,489.937,92.883z"/>
	</g>
	<g>
		<polygon fill="#217D92" points="389.739,174.634 404.271,170.748 404.819,191.851 390.762,194.815 		"/>
		<path fill="#FFFFFF" d="M390.762,196.662c-0.403,0-0.8-0.133-1.125-0.384c-0.426-0.328-0.688-0.829-0.717-1.368l-1.024-20.182
			c-0.044-0.871,0.526-1.652,1.367-1.877l14.531-3.885c0.548-0.157,1.129-0.035,1.583,0.304c0.451,0.339,0.725,0.866,0.739,1.43
			l0.548,21.104c0.021,0.891-0.591,1.671-1.464,1.855l-14.056,2.964C391.02,196.649,390.892,196.662,390.762,196.662z
			 M391.661,176.03l0.84,16.533l10.432-2.201l-0.443-17.226L391.661,176.03z"/>
	</g>
	<g>
		<polygon fill="#217D92" points="600.7,382.453 588.532,369.896 588.685,218.299 512.817,174.422 405.562,200.746 405.519,182.848 
			513.249,156.279 602.251,208.02 		"/>
		<path fill="#FFFFFF" d="M600.7,384.301c-0.492,0-0.971-0.193-1.329-0.563l-12.163-12.559c-0.334-0.345-0.521-0.807-0.521-1.283
			l0.152-150.532l-74.303-42.97l-106.535,26.145c-0.555,0.133-1.132,0.01-1.579-0.337c-0.444-0.35-0.707-0.884-0.707-1.45
			l-0.043-17.898c-0.003-0.85,0.577-1.594,1.402-1.797l107.735-26.568c0.465-0.115,0.951-0.044,1.37,0.196l89.001,51.741
			c0.572,0.334,0.923,0.949,0.916,1.612l-1.551,174.436c-0.007,0.752-0.461,1.42-1.162,1.695
			C601.165,384.258,600.929,384.301,600.7,384.301z M590.38,369.147l8.517,8.79l1.5-168.86l-87.429-50.827l-105.604,26.043
			l0.036,14.1l104.976-25.763c0.461-0.112,0.955-0.043,1.367,0.194l75.864,43.877c0.568,0.33,0.923,0.939,0.923,1.599
			L590.38,369.147z"/>
	</g>
	<g>
		<polygon fill="#217D92" points="390.813,174.067 517.85,144.628 619.868,201.432 599.178,208.02 511.804,157.907 405.519,182.848 
					"/>
		<path fill="#FFFFFF" d="M599.178,209.867c-0.317,0-0.635-0.083-0.915-0.246l-86.745-49.75l-105.582,24.774
			c-0.461,0.112-0.952,0.036-1.367-0.212l-14.701-8.781c-0.648-0.386-0.994-1.126-0.879-1.87c0.119-0.744,0.677-1.343,1.41-1.514
			l127.033-29.439c0.446-0.095,0.916-0.034,1.316,0.186l102.019,56.804c0.646,0.359,1.014,1.066,0.94,1.797
			c-0.077,0.733-0.575,1.354-1.276,1.576l-20.691,6.589C599.556,209.838,599.364,209.867,599.178,209.867z M511.804,156.061
			c0.319,0,0.639,0.083,0.919,0.246l86.671,49.708l15.843-5.046l-97.661-54.381l-121.88,28.243l10.125,6.048l105.56-24.77
			C511.518,156.078,511.662,156.061,511.804,156.061z"/>
	</g>
	<g>
		<polygon fill="#217D92" points="473.958,393.907 557.141,365.002 569.805,372.715 473.958,404.852 		"/>
		<path fill="#FFFFFF" d="M473.958,406.696c-0.382,0-0.761-0.117-1.079-0.345c-0.479-0.347-0.767-0.908-0.767-1.5v-10.944
			c0-0.787,0.497-1.486,1.24-1.74l83.18-28.906c0.521-0.184,1.096-0.123,1.565,0.165l12.668,7.712
			c0.613,0.375,0.955,1.072,0.876,1.787c-0.082,0.713-0.568,1.311-1.249,1.543l-95.848,32.135
			C474.355,406.669,474.153,406.696,473.958,406.696z M475.806,395.219v7.065l89.648-30.056l-8.531-5.196L475.806,395.219z"/>
	</g>
	<g>
		<polygon fill="#217D92" points="372.095,356.698 385.379,350.918 385.379,212.587 372.438,204.378 		"/>
		<path fill="#FFFFFF" d="M372.095,358.543c-0.357,0-0.711-0.104-1.013-0.302c-0.52-0.346-0.837-0.927-0.833-1.55l0.342-152.316
			c0-0.672,0.368-1.29,0.959-1.615c0.583-0.322,1.305-0.303,1.875,0.059l12.941,8.208c0.537,0.339,0.858,0.927,0.858,1.56v138.331
			c0,0.735-0.437,1.399-1.11,1.691l-13.284,5.78C372.597,358.494,372.344,358.543,372.095,358.543z M374.276,207.73l-0.332,146.147
			l9.588-4.168V213.602L374.276,207.73z"/>
	</g>
	<g>
		<polygon fill="#217D92" points="358.526,182.782 440.799,239.773 441.138,258.974 373.217,212.757 372.719,260.55 
			392.421,272.838 392.421,292.083 372.271,277.844 372.143,355.633 358.049,343.73 		"/>
		<path fill="#FFFFFF" d="M372.143,357.48c-0.429,0-0.852-0.147-1.194-0.436l-14.092-11.903c-0.415-0.349-0.656-0.869-0.653-1.417
			l0.476-160.947c0-0.685,0.383-1.314,0.989-1.631c0.613-0.319,1.348-0.271,1.907,0.119l82.276,56.992
			c0.486,0.339,0.782,0.891,0.793,1.486l0.339,19.199c0.014,0.691-0.361,1.329-0.967,1.657c-0.613,0.328-1.349,0.291-1.918-0.097
			l-65.073-44.279l-0.447,43.311l18.823,11.739c0.541,0.337,0.865,0.931,0.865,1.567v19.245c0,0.688-0.382,1.324-0.995,1.641
			c-0.613,0.317-1.353,0.267-1.915-0.133l-17.244-12.184l-0.125,74.232c-0.004,0.717-0.419,1.37-1.075,1.673
			C372.668,357.426,372.402,357.48,372.143,357.48z M359.896,342.876l10.407,8.787l0.122-73.823c0.003-0.689,0.389-1.32,1.002-1.637
			c0.613-0.314,1.349-0.271,1.911,0.133l17.236,12.18v-14.655l-18.83-11.746c-0.548-0.341-0.879-0.942-0.873-1.587l0.498-47.793
			c0.006-0.68,0.386-1.301,0.987-1.617c0.606-0.31,1.334-0.267,1.897,0.11l64.972,44.212l-0.26-14.689L360.358,186.3
			L359.896,342.876z"/>
	</g>
	<g>
		<polygon fill="#217D92" points="357.79,183.102 372.271,178.885 457.577,234.753 439.774,238.75 		"/>
		<path fill="#FFFFFF" d="M439.774,240.597c-0.368,0-0.728-0.11-1.039-0.319l-81.98-55.648c-0.591-0.403-0.898-1.109-0.787-1.816
			c0.112-0.704,0.621-1.284,1.31-1.484l14.481-4.217c0.512-0.154,1.075-0.067,1.526,0.227l85.304,55.868
			c0.621,0.408,0.938,1.145,0.805,1.875c-0.134,0.73-0.689,1.309-1.414,1.471l-17.803,3.998
			C440.045,240.582,439.912,240.597,439.774,240.597z M362.075,183.778l78.074,52.997l12.765-2.867l-80.938-53.013L362.075,183.778z
			"/>
	</g>
	<g>
		<polygon fill="#217D92" points="385.12,257.138 406.369,268.36 391.898,272.631 373.112,260.692 		"/>
		<path fill="#FFFFFF" d="M391.898,274.478c-0.35,0-0.688-0.097-0.991-0.289l-18.787-11.938c-0.609-0.388-0.938-1.099-0.836-1.814
			c0.1-0.718,0.609-1.309,1.305-1.514l12.008-3.554c0.461-0.137,0.959-0.09,1.385,0.139l21.246,11.222
			c0.667,0.35,1.053,1.067,0.978,1.815c-0.076,0.746-0.595,1.374-1.316,1.586l-14.467,4.271
			C392.249,274.453,392.075,274.478,391.898,274.478z M377.529,261.31l14.651,9.313l9.314-2.75l-16.573-8.751L377.529,261.31z"/>
	</g>
	<g>
		<polygon fill="#217D92" points="391.651,272.765 406.369,268.36 406.575,285.971 391.651,291.395 		"/>
		<path fill="#FFFFFF" d="M391.651,293.241c-0.373,0-0.744-0.112-1.058-0.332c-0.493-0.346-0.79-0.908-0.79-1.514v-18.629
			c0-0.816,0.538-1.535,1.319-1.769l14.713-4.405c0.562-0.166,1.161-0.063,1.626,0.281c0.466,0.345,0.747,0.887,0.753,1.466
			l0.206,17.611c0.011,0.783-0.48,1.485-1.215,1.753l-14.921,5.43C392.075,293.205,391.866,293.241,391.651,293.241z
			 M393.496,274.139v14.624l11.219-4.082l-0.163-13.849L393.496,274.139z"/>
	</g>
	<g>
		<polygon fill="#217D92" points="440.993,239.665 455.529,234.753 456.074,255.858 440.993,259.845 		"/>
		<path fill="#FFFFFF" d="M440.993,261.691c-0.404,0-0.8-0.132-1.125-0.384c-0.454-0.349-0.721-0.889-0.721-1.462v-20.18
			c0-0.792,0.504-1.495,1.255-1.749l14.536-4.912c0.555-0.186,1.168-0.099,1.647,0.235c0.484,0.338,0.772,0.881,0.79,1.467
			l0.544,21.106c0.021,0.854-0.548,1.614-1.377,1.832l-15.073,3.986C441.311,261.671,441.152,261.691,440.993,261.691z
			 M442.839,240.99v16.457l11.352-3l-0.443-17.142L442.839,240.99z"/>
	</g>
	<g>
		<polygon fill="#217D92" points="455.76,269.119 458.432,430.569 569.805,391.667 569.805,373.74 474.446,404.36 472.704,265.778 
					"/>
		<path fill="#FFFFFF" d="M458.432,432.414c-0.375,0-0.743-0.114-1.06-0.331c-0.483-0.339-0.779-0.894-0.787-1.486l-2.672-161.447
			c-0.015-0.894,0.613-1.669,1.489-1.843l16.949-3.34c0.541-0.108,1.092,0.034,1.519,0.378c0.425,0.347,0.673,0.862,0.681,1.41
			l1.71,136.083l92.983-29.854c0.562-0.184,1.173-0.083,1.65,0.266c0.476,0.347,0.756,0.901,0.756,1.491v17.927
			c0,0.784-0.492,1.482-1.233,1.742l-111.378,38.9C458.842,432.379,458.633,432.414,458.432,432.414z M457.631,270.632
			l2.603,157.348l107.723-37.624v-14.084l-92.945,29.846c-0.557,0.178-1.168,0.084-1.645-0.26s-0.761-0.892-0.769-1.474
			l-1.712-136.364L457.631,270.632z"/>
	</g>
	<g>
		<polygon fill="#217D92" points="472.909,265.311 458.526,255.793 441.823,260.202 456.585,269.748 		"/>
		<path fill="#FFFFFF" d="M456.585,271.594c-0.353,0-0.702-0.101-1.002-0.296l-14.762-9.546c-0.613-0.397-0.938-1.121-0.822-1.841
			c0.115-0.723,0.648-1.308,1.354-1.495l16.699-4.408c0.509-0.132,1.053-0.045,1.489,0.246l14.388,9.517
			c0.603,0.401,0.917,1.118,0.8,1.834c-0.115,0.715-0.635,1.298-1.334,1.487l-16.327,4.438
			C456.91,271.573,456.744,271.594,456.585,271.594z M446.334,260.921l10.562,6.83l11.592-3.152l-10.294-6.81L446.334,260.921z"/>
	</g>
	<g>
		<polygon fill="#217D92" points="601.954,207.522 600.881,382.256 618.846,375.93 619.868,201.432 		"/>
		<path fill="#FFFFFF" d="M600.881,384.102c-0.383,0-0.758-0.115-1.075-0.342c-0.491-0.348-0.779-0.912-0.772-1.514l1.074-174.734
			c0.007-0.786,0.51-1.484,1.255-1.738l17.911-6.089c0.567-0.193,1.187-0.103,1.678,0.249c0.482,0.35,0.767,0.913,0.763,1.509
			l-1.022,174.496c-0.004,0.777-0.499,1.471-1.234,1.73l-17.964,6.328C601.29,384.066,601.082,384.102,600.881,384.102z
			 M603.795,208.848l-1.055,170.798l14.265-5.028l1.003-170.602L603.795,208.848z"/>
	</g>
	<g>
		<polyline fill="#217D92" points="440.503,258.383 456.809,268.944 458.908,429.546 443.28,416.534 441.527,258.383 		"/>
		<path fill="#FFFFFF" d="M458.908,431.391c-0.425,0-0.844-0.147-1.183-0.43l-15.624-13.005c-0.415-0.347-0.66-0.86-0.667-1.401
			l-1.734-156.494l-0.198-0.129c-0.859-0.553-1.104-1.697-0.548-2.553c0.454-0.7,1.298-0.989,2.062-0.77
			c0.163-0.047,0.292-0.056,0.513-0.072c0.894,0,1.641,0.635,1.81,1.482l14.474,9.377c0.52,0.335,0.834,0.907,0.844,1.525
			l2.098,160.599c0.008,0.716-0.403,1.38-1.053,1.69C459.449,431.328,459.174,431.391,458.908,431.391z M445.119,415.662
			l11.889,9.897l-2.034-155.604l-11.557-7.484L445.119,415.662z"/>
	</g>
	<g>
		<polygon fill="#217D92" points="602.251,206.996 456.91,248.324 456.885,269.078 601.724,227.448 		"/>
		<path fill="#FFFFFF" d="M456.885,270.924c-0.397,0-0.79-0.128-1.115-0.371c-0.462-0.35-0.732-0.896-0.732-1.477l0.026-20.754
			c0-0.824,0.548-1.549,1.34-1.774l145.34-41.327c0.559-0.165,1.173-0.045,1.638,0.316c0.465,0.361,0.729,0.92,0.715,1.506
			l-0.527,20.451c-0.021,0.806-0.562,1.506-1.334,1.727l-144.842,41.631C457.227,270.9,457.054,270.924,456.885,270.924z
			 M458.757,249.719l-0.022,16.907l141.179-40.58l0.43-16.588L458.757,249.719z"/>
	</g>
	<g>
		<polygon fill="#217D92" points="584.466,199.384 439.774,239.773 455.886,248.324 602.251,208.02 		"/>
		<path fill="#FFFFFF" d="M455.886,250.171c-0.3,0-0.6-0.074-0.866-0.216l-16.111-8.549c-0.667-0.355-1.053-1.08-0.971-1.83
			c0.083-0.752,0.609-1.378,1.338-1.58l144.694-40.39c0.438-0.125,0.898-0.079,1.303,0.118l17.784,8.636
			c0.691,0.335,1.104,1.063,1.032,1.83c-0.07,0.764-0.607,1.406-1.35,1.609l-146.364,40.304
			C456.217,250.148,456.051,250.171,455.886,250.171z M444.722,240.31l11.38,6.04l140.933-38.809l-12.741-6.189L444.722,240.31z"/>
	</g>
	<g>
		<polyline fill="#217D92" points="600.693,382.523 500.007,312.028 499.25,177.931 512.577,174.843 512.577,174.843 
			512.771,304.022 588.209,355.922 		"/>
		<path fill="#FFFFFF" d="M600.693,384.369c-0.369,0-0.737-0.107-1.058-0.33l-100.688-70.497c-0.492-0.346-0.787-0.901-0.787-1.5
			l-0.757-134.101c-0.006-0.863,0.59-1.615,1.428-1.81l13.332-3.088c0.548-0.12,1.125,0.005,1.565,0.353
			c0.44,0.35,0.695,0.882,0.695,1.441l0.194,128.215l74.635,51.348c0.842,0.581,1.055,1.728,0.479,2.567
			c-0.578,0.841-1.725,1.057-2.569,0.477l-75.435-51.9c-0.501-0.343-0.802-0.909-0.802-1.515l-0.187-126.864l-9.634,2.231
			l0.743,131.669l99.904,69.948c0.838,0.588,1.041,1.734,0.455,2.571C601.845,384.095,601.276,384.369,600.693,384.369z"/>
	</g>
	<g>
		<polygon fill="#217D92" points="526.213,182.893 526.022,300.684 511.759,303.958 512.584,174.774 		"/>
		<path fill="#FFFFFF" d="M511.759,305.804c-0.413,0-0.826-0.144-1.157-0.408c-0.439-0.353-0.692-0.89-0.688-1.453l0.825-129.182
			c0.007-0.662,0.364-1.271,0.942-1.596c0.574-0.324,1.283-0.317,1.85,0.021l13.625,8.119c0.559,0.333,0.905,0.937,0.901,1.59
			l-0.19,117.795c-0.003,0.858-0.6,1.601-1.436,1.796l-14.257,3.267C512.036,305.786,511.897,305.804,511.759,305.804z
			 M514.412,178.01l-0.791,123.625l10.554-2.423l0.188-115.271L514.412,178.01z"/>
	</g>
	<g>
		<polygon fill="#217D92" points="526.022,298.639 588.167,339.649 588.217,355.854 511.728,303.63 		"/>
		<path fill="#FFFFFF" d="M588.217,357.7c-0.361,0-0.729-0.108-1.04-0.324l-76.488-52.221c-0.578-0.394-0.883-1.075-0.793-1.768
			c0.094-0.692,0.565-1.269,1.221-1.5l14.291-4.99c0.545-0.195,1.146-0.123,1.631,0.201l62.146,41.011
			c0.515,0.342,0.826,0.919,0.829,1.536l0.047,15.682c0.051,0.166,0.077,0.342,0.077,0.526c0,1.031-0.84,1.934-1.888,1.847
			C588.244,357.7,588.23,357.7,588.217,357.7z M515.788,304.166l70.576,48.183l-0.038-11.704l-60.56-39.96L515.788,304.166z"/>
	</g>
	<g>
		<line fill="#217D92" x1="512.584" y1="158.504" x2="512.584" y2="189.399"/>
		<path fill="#FFFFFF" d="M512.584,191.246c-1.017,0-1.846-0.826-1.846-1.847v-30.895c0-1.021,0.829-1.846,1.846-1.846
			c1.024,0,1.847,0.825,1.847,1.846v30.895C514.432,190.419,513.609,191.246,512.584,191.246z"/>
	</g>
	<g>
		<line fill="#217D92" x1="511.728" y1="288.77" x2="511.728" y2="319.665"/>
		<path fill="#FFFFFF" d="M511.728,321.511c-1.02,0-1.847-0.825-1.847-1.846V288.77c0-1.017,0.827-1.846,1.847-1.846
			s1.845,0.829,1.845,1.846v30.896C513.573,320.686,512.748,321.511,511.728,321.511z"/>
	</g>
	<g>
		<line fill="#217D92" x1="588.217" y1="343.226" x2="588.217" y2="374.122"/>
		<path fill="#FFFFFF" d="M588.217,375.968c-1.017,0-1.847-0.829-1.847-1.846v-30.896c0-1.017,0.83-1.847,1.847-1.847
			c1.022,0,1.845,0.83,1.845,1.847v30.896C590.062,375.139,589.239,375.968,588.217,375.968z"/>
	</g>
</g>
<g>
	<g>
		<g>
			<g>
				<path fill="#828282" d="M374.995,513.881v0.679h-23.996v24.202h21.68v0.683h-21.68v26.929h-0.682v-52.492H374.995z"/>
				<polygon fill="#828282" points="354.551,569.925 346.765,569.925 346.765,510.328 378.547,510.328 378.547,518.112 
					354.551,518.112 354.551,535.21 376.23,535.21 376.23,542.997 354.551,542.997 				"/>
			</g>
			<g>
				<path fill="#828282" d="M383.448,566.373l23.997-52.492h0.886l23.52,52.492h-0.749l-8.658-19.089h-29.452l-8.863,19.089H383.448
					z M393.267,546.602h28.836L407.855,514.7L393.267,546.602z"/>
				<path fill="#828282" d="M437.335,569.925h-8.522l-8.659-19.089H395.26l-8.863,19.089h-8.478l27.246-59.597h0.783l1.944-4.255
					l1.899,4.255h0.839L437.335,569.925z M398.796,543.049h17.829l-8.809-19.727L398.796,543.049z"/>
			</g>
			<g>
				<path fill="#828282" d="M443.574,513.881h17.93l8.043,8.044V535.9l-4.021,4.02l8.726,8.729v8.862l-8.793,8.862h-21.884V513.881z
					 M461.094,514.56h-16.838v25.226h20.316l4.294-4.295v-13.091L461.094,514.56z M473.57,557.17v-8.112l-8.588-8.589h-20.726
					v25.222h21.27L473.57,557.17z"/>
				<path fill="#828282" d="M466.938,569.925h-26.916v-59.597h22.953l10.125,10.126v16.917l-2.549,2.549l7.253,7.257v11.797
					L466.938,569.925z M447.807,562.138h16.188l6.023-6.379v-5.231l-6.509-6.507h-15.702V562.138z M447.807,536.232h15.292
					l2.215-2.212v-10.157l-5.701-5.751h-11.806V536.232z"/>
			</g>
			<g>
				<path fill="#164C59" d="M487.545,566.373v-52.492h0.682v51.81h27.268v0.683H487.545z"/>
				<polygon fill="#164C59" points="519.047,569.925 483.993,569.925 483.993,510.328 491.779,510.328 491.779,562.138 
					519.047,562.138 				"/>
			</g>
			<g>
				<path fill="#164C59" d="M524.357,566.373l23.996-52.492h0.885l23.521,52.492h-0.749l-8.658-19.089h-29.453l-8.862,19.089
					H524.357z M534.174,546.602h28.835L548.763,514.7L534.174,546.602z"/>
				<path fill="#164C59" d="M578.244,569.925h-8.523l-8.657-19.089h-24.896l-8.862,19.089h-8.478l27.243-59.597h0.784l1.945-4.255
					l1.901,4.255h0.84L578.244,569.925z M539.703,543.049h17.829l-8.808-19.727L539.703,543.049z"/>
			</g>
			<g>
				<path fill="#164C59" d="M584.483,513.881h17.931l8.044,8.044V535.9l-4.024,4.02l8.729,8.729v8.862l-8.794,8.862h-21.885V513.881
					z M602.004,514.56h-16.84v25.226h20.316l4.295-4.295v-13.091L602.004,514.56z M614.479,557.17v-8.112l-8.589-8.589h-20.726
					v25.222h21.27L614.479,557.17z"/>
				<path fill="#164C59" d="M607.846,569.925h-26.914v-59.597h22.953l10.125,10.126v16.917l-2.553,2.549l7.256,7.257v11.797
					L607.846,569.925z M588.716,562.138h16.188l6.021-6.379v-5.231l-6.507-6.507h-15.703V562.138z M588.716,536.232h15.293
					l2.214-2.212v-10.157l-5.699-5.751h-11.808V536.232z"/>
			</g>
		</g>
	</g>
	<g>
		<path fill="#000100" d="M309.7,604.637c-2.799-2.342-5.633-3.514-8.506-3.514c-1.301,0-2.499,0.312-3.599,0.937
			c-1.098,0.621-1.647,1.408-1.647,2.352c0,0.95,0.824,1.709,2.471,2.283c0.401,0.124,1.261,0.349,2.584,0.672
			c1.748,0.399,4.356,1.058,7.827,1.98c1.974,0.6,3.783,1.635,5.432,3.104c1.547,1.37,2.32,2.991,2.32,4.86
			c0,3.163-1.495,5.644-4.485,7.437c-2.543,1.522-5.583,2.282-9.123,2.282c-2.666,0-5.271-0.499-7.813-1.495
			c-2.118-0.847-4.773-2.292-7.962-4.336l4.187-3.926c2.319,1.571,4.15,2.652,5.496,3.254c1.795,0.821,3.577,1.231,5.346,1.231
			c3.864,0,6.467-0.91,7.813-2.728c0.425-0.575,0.637-1.109,0.637-1.608c0-1.346-1.634-2.544-4.897-3.591
			c-1.222-0.371-2.729-0.746-4.523-1.12c-1.197-0.226-2.394-0.461-3.589-0.711c-1.896-0.398-3.59-1.257-5.085-2.577
			c-1.694-1.495-2.542-3.13-2.542-4.898c0-2.717,1.235-4.797,3.701-6.244c2.069-1.196,4.624-1.793,7.665-1.793
			c3.688,0,7.44,0.996,11.252,2.99L309.7,604.637z"/>
		<path fill="#000100" d="M356.772,625.983l-1.495-5.571H340.92l-1.793,5.571l-6.506,0.076l11.515-29.199h7.815l11.326,29.199
			L356.772,625.983z M347.798,600.562l-5.383,14.953h11.068L347.798,600.562z"/>
		<path fill="#000100" d="M406.567,626.656h-5.169l-15.503-20.185v20.185h-5.458V596.86h5.496l15.216,20.299V596.86h5.419V626.656z"
			/>
		<path fill="#000100" d="M448.626,601.459h-9.421v24.899h-5.684v-24.899h-9.719l-0.113-4.711h25.086L448.626,601.459z"/>
		<path fill="#000100" d="M488.624,625.983l-1.495-5.571h-14.355l-1.794,5.571l-6.504,0.076l11.514-29.199h7.814l11.327,29.199
			L488.624,625.983z M479.652,600.562l-5.383,14.953h11.067L479.652,600.562z"/>
		<path fill="#000100" d="M538.419,626.656h-5.168l-15.505-20.185v20.185h-5.457V596.86h5.495l15.217,20.299V596.86h5.418V626.656z"
			/>
		<path fill="#000100" d="M568.774,626.806h-11.139v-29.758h10.278c3.614,0,6.407,0.311,8.377,0.936
			c3.264,1.071,5.793,2.904,7.586,5.495c1.696,2.441,2.543,5.247,2.543,8.411c0,4.734-1.668,8.436-5.01,11.104
			C578.22,625.535,574.009,626.806,568.774,626.806z M563.204,601.758v19.664h5.969c3.209,0,5.895-0.996,8.059-2.99
			c1.991-1.817,3.107-4.024,3.357-6.619c0.225-2.739-0.621-5.047-2.536-6.913c-2.115-2.095-5.161-3.142-9.14-3.142H563.204z"/>
		<path fill="#000100" d="M626.085,601.982h-15.853v5.532h15.106v5.273h-15.218v9.046h16.113l0.114,4.822h-21.798V596.86h21.534
			V601.982z"/>
		<path fill="#000100" d="M668.062,615.819c-1.271,0.875-2.968,1.624-5.089,2.248l9.816,8.589h-8.348l-9.272-8.297h-5.796v8.297
			h-5.831V596.86h10.806c5.21,0,9.133,0.661,11.775,1.987c3.663,1.849,5.494,5.081,5.494,9.702
			C671.618,611.724,670.433,614.147,668.062,615.819z M656.103,601.872h-6.878v11.44h6.58c3.018,0,5.272-0.351,6.768-1.052
			c1.967-0.927,2.952-2.539,2.952-4.839c0-2.075-0.923-3.562-2.765-4.464C661.264,602.233,659.045,601.872,656.103,601.872z"/>
	</g>
	<line fill="#3669AC" x1="260.63" y1="586.751" x2="719.244" y2="586.751"/>
</g>
</svg>
