<?xml version="1.0" encoding="UTF-8" standalone="no"?>
<svg
   xmlns:dc="http://purl.org/dc/elements/1.1/"
   xmlns:cc="http://creativecommons.org/ns#"
   xmlns:rdf="http://www.w3.org/1999/02/22-rdf-syntax-ns#"
   xmlns:svg="http://www.w3.org/2000/svg"
   xmlns="http://www.w3.org/2000/svg"
   xmlns:sodipodi="http://sodipodi.sourceforge.net/DTD/sodipodi-0.dtd"
   xmlns:inkscape="http://www.inkscape.org/namespaces/inkscape"
   width="1583.08pt"
   height="801.79pt"
   viewBox="0 0 1583.08 801.79"
   version="1.1"
   id="svg2"
   inkscape:version="0.91 r13725"
   sodipodi:docname="MOCKUP_10Nov17_2024_B39323_1.svg">
  <metadata
     id="metadata201">
    <rdf:RDF>
      <cc:Work
         rdf:about="">
        <dc:format>image/svg+xml</dc:format>
        <dc:type
           rdf:resource="http://purl.org/dc/dcmitype/StillImage" />
        <dc:title></dc:title>
      </cc:Work>
    </rdf:RDF>
  </metadata>
  <sodipodi:namedview
     pagecolor="#ffffff"
     bordercolor="#666666"
     borderopacity="1"
     objecttolerance="10"
     gridtolerance="10"
     guidetolerance="10"
     inkscape:pageopacity="0"
     inkscape:pageshadow="2"
     inkscape:window-width="1366"
     inkscape:window-height="720"
     id="namedview199"
     showgrid="false"
     inkscape:zoom="0.18849332"
     inkscape:cx="989.42497"
     inkscape:cy="501.11874"
     inkscape:window-x="0"
     inkscape:window-y="0"
     inkscape:window-maximized="1"
     inkscape:current-layer="svg2" />
  <defs
     id="defs4">
    <clipPath
       id="clip1">
      <path
         d="M 0 755 L 52 755 L 52 801.789062 L 0 801.789062 Z M 0 755 "
         id="path7" />
    </clipPath>
    <clipPath
       id="clip2">
      <path
         d="M 75 755 L 124 755 L 124 801.789062 L 75 801.789062 Z M 75 755 "
         id="path10" />
    </clipPath>
    <clipPath
       id="clip3">
      <path
         d="M 134 755 L 194 755 L 194 801.789062 L 134 801.789062 Z M 134 755 "
         id="path13" />
    </clipPath>
    <clipPath
       id="clip4">
      <path
         d="M 208 755 L 219 755 L 219 801.789062 L 208 801.789062 Z M 208 755 "
         id="path16" />
    </clipPath>
    <clipPath
       id="clip5">
      <path
         d="M 244 755 L 290 755 L 290 801.789062 L 244 801.789062 Z M 244 755 "
         id="path19" />
    </clipPath>
    <clipPath
       id="clip6">
      <path
         d="M 307 755 L 353 755 L 353 801.789062 L 307 801.789062 Z M 307 755 "
         id="path22" />
    </clipPath>
    <clipPath
       id="clip7">
      <path
         d="M 361 755 L 425 755 L 425 801.789062 L 361 801.789062 Z M 361 755 "
         id="path25" />
    </clipPath>
    <clipPath
       id="clip8">
      <path
         d="M 469 755 L 546 755 L 546 801.789062 L 469 801.789062 Z M 469 755 "
         id="path28" />
    </clipPath>
    <clipPath
       id="clip9">
      <path
         d="M 553 755 L 617 755 L 617 801.789062 L 553 801.789062 Z M 553 755 "
         id="path31" />
    </clipPath>
    <clipPath
       id="clip10">
      <path
         d="M 631 755 L 684 755 L 684 801.789062 L 631 801.789062 Z M 631 755 "
         id="path34" />
    </clipPath>
    <clipPath
       id="clip11">
      <path
         d="M 707 755 L 762 755 L 762 801.789062 L 707 801.789062 Z M 707 755 "
         id="path37" />
    </clipPath>
    <clipPath
       id="clip12">
      <path
         d="M 792 755 L 846 755 L 846 801.789062 L 792 801.789062 Z M 792 755 "
         id="path40" />
    </clipPath>
    <clipPath
       id="clip13">
      <path
         d="M 897 755 L 948 755 L 948 801.789062 L 897 801.789062 Z M 897 755 "
         id="path43" />
    </clipPath>
    <clipPath
       id="clip14">
      <path
         d="M 970 755 L 1023 755 L 1023 801.789062 L 970 801.789062 Z M 970 755 "
         id="path46" />
    </clipPath>
    <clipPath
       id="clip15">
      <path
         d="M 1047 755 L 1059 755 L 1059 801.789062 L 1047 801.789062 Z M 1047 755 "
         id="path49" />
    </clipPath>
    <clipPath
       id="clip16">
      <path
         d="M 1084 755 L 1130 755 L 1130 801.789062 L 1084 801.789062 Z M 1084 755 "
         id="path52" />
    </clipPath>
    <clipPath
       id="clip17">
      <path
         d="M 1136 755 L 1190 755 L 1190 801.789062 L 1136 801.789062 Z M 1136 755 "
         id="path55" />
    </clipPath>
    <clipPath
       id="clip18">
      <path
         d="M 1232 755 L 1296 755 L 1296 801.789062 L 1232 801.789062 Z M 1232 755 "
         id="path58" />
    </clipPath>
    <clipPath
       id="clip19">
      <path
         d="M 1312 755 L 1358 755 L 1358 801.789062 L 1312 801.789062 Z M 1312 755 "
         id="path61" />
    </clipPath>
    <clipPath
       id="clip20">
      <path
         d="M 1374 755 L 1432 755 L 1432 801.789062 L 1374 801.789062 Z M 1374 755 "
         id="path64" />
    </clipPath>
    <clipPath
       id="clip21">
      <path
         d="M 1455 755 L 1510 755 L 1510 801.789062 L 1455 801.789062 Z M 1455 755 "
         id="path67" />
    </clipPath>
    <clipPath
       id="clip22">
      <path
         d="M 1535 755 L 1583.078125 755 L 1583.078125 801.789062 L 1535 801.789062 Z M 1535 755 "
         id="path70" />
    </clipPath>
  </defs>
  <path
     inkscape:connector-curvature="0"
     id="path73"
     d="m 1032.8672,308.73828 45.4492,-10.66016 -1.0703,-45.69921 -0.031,-1.40625 -47.0703,-5.28907 c -3.6484,-20.9414 -9.9765,-40.96093 -18.6172,-59.69922 l 34.2266,-31.79687 -23.5586,-39.16406 -0.7305,-1.21094 -43.5898,18.75391 C 964.55078,116.48438 949.19141,102.15625 932.19922,89.953125 l 14.01953,-44.644531 -39.86719,-22.363282 -1.23047,-0.6875 -28.5625,37.847657 C 857.32812,52.828125 836.94531,47.90625 815.74609,45.714844 L 805.82031,0.00390625 760.11328,0.320312 l -1.41016,0.011719 -6.07031,47.007813 c -26.51953,4.140625 -51.61328,12.5625 -74.5664,24.535156 l -33.42188,-32.578125 -37.94922,25.476563 -1.16797,0.785156 20.83985,42.499996 c -15.4336,14.10547 -29.04297,30.16797 -40.4336,47.79688 l -45.08984,-11.73047 -20.35156,40.92969 -0.62891,1.25781 39.02344,26.51562 c -6.33203,19.58594 -10.25781,40.25 -11.40625,61.65625 l -44.90625,12.11719 2.58984,45.63672 0.0781,1.40625 46.9414,3.70313 c 4.32032,20.875 11.32813,40.76171 20.62891,59.30859 l -32.92969,32.67578 24.84766,38.36328 0.76953,1.1836 42.60937,-20.02735 c 13.89844,15.71875 29.78907,29.625 47.28907,41.32422 l -12.41797,44.67969 40.58594,21.02734 1.25,0.64844 27.05468,-38.43359 c 19.52735,6.66015 40.17578,10.89843 61.58594,12.375 l 11.34375,45.00781 45.67578,-1.83594 1.40625,-0.0547 4.48047,-46.86328 c 15.51172,-2.96094 30.50391,-7.39453 44.82422,-13.14844 l 0,-46.03515 c -27.26953,13.78515 -58.09375,21.5625 -90.74219,21.5625 -111.21094,0 -201.36328,-90.15235 -201.36328,-201.36328 0,-111.21094 90.15234,-201.36719 201.36328,-201.36719 111.21094,0 201.36719,90.15625 201.36719,201.36719 0,55.65625 -22.58203,106.03515 -59.07813,142.48437 l 0,107.4375 34.16797,-21.33203 1.19532,-0.75 -19.36329,-43.03906 c 15.89844,-13.62891 30.01172,-29.28125 41.95704,-46.54688 l 44.65242,13.21094 21.7031,-40.23047 0.6679,-1.24219 -38.1679,-27.82812 c 6.9375,-19.37109 11.5,-39.87891 13.3203,-61.16797"
     style="fill:#2e3391;fill-opacity:1;fill-rule:nonzero;stroke:none" />
  <path
     inkscape:connector-curvature="0"
     id="path75"
     d="m 790.44531,101.1875 c -57.74219,0 -109.35156,26.23828 -143.57422,67.4375 l 53.04297,0 89.34766,127.58203 89.77734,-127.58203 53.69531,0 0,239.75391 C 960.33984,375.85156 977,333.74609 977,287.74219 977,184.71094 893.47656,101.1875 790.44531,101.1875"
     style="fill:#b0b0ae;fill-opacity:1;fill-rule:nonzero;stroke:none" />
  <path
     inkscape:connector-curvature="0"
     id="path77"
     d="m 789.26172,385.98437 -91.92578,-131.01562 0,155.11719 -47.71875,0 c 34.19922,39.33984 84.60937,64.21093 140.82812,64.21093 32.94141,0 63.88281,-8.55078 90.74219,-23.53515 l 0,-195.79297 -91.92578,131.01562"
     style="fill:#b0b0ae;fill-opacity:1;fill-rule:nonzero;stroke:none" />
  <path
     inkscape:connector-curvature="0"
     id="path79"
     d="m 603.89062,287.74219 c 0,44.67187 15.71094,85.67187 41.89844,117.78906 l 0,-235.57813 c -26.1875,32.11719 -41.89844,73.11719 -41.89844,117.78907"
     style="fill:#b0b0ae;fill-opacity:1;fill-rule:nonzero;stroke:none" />
  <path
     inkscape:connector-curvature="0"
     id="path81"
     d="m 645.78906,168.625 0,1.32812 c 0.35938,-0.44531 0.71875,-0.88671 1.08203,-1.32812 l -1.08203,0"
     style="fill:#0f0c0c;fill-opacity:1;fill-rule:nonzero;stroke:none" />
  <path
     inkscape:connector-curvature="0"
     id="path83"
     d="m 649.61719,410.08594 c -1.30469,-1.4961 -2.57422,-3.01563 -3.82813,-4.55469"
     style="fill:#0f0c0c;fill-opacity:1;fill-rule:nonzero;stroke:none" />
  <path
     inkscape:connector-curvature="0"
     id="path85"
     d="m 168.54297,731.45703 -21.34766,0 -15.76953,-76.14844 -36.480468,70.25 C 92.5,730.33984 89.101562,732.72656 84.75,732.72656 c -4.886719,0 -8.605469,-2.4375 -11.152344,-7.32422 L 37.117188,655.30859 21.507812,731.45703 0,731.45703 24.375,631.57422 c 0.632812,-2.8711 2.042969,-5.36328 4.21875,-7.48828 2.175781,-2.125 4.699219,-3.1875 7.570312,-3.1875 4.140626,0 8.066407,3.55859 11.785157,10.67578 L 84.269531,702.78125 120.75,631.57422 c 3.71875,-7.11719 7.64844,-10.67578 11.78906,-10.67578 2.76172,0 5.3086,1.11718 7.64844,3.34765 2.01562,2.01563 3.39453,4.45703 4.14062,7.32813 l 24.21485,99.88281"
     style="fill:#2e3391;fill-opacity:1;fill-rule:nonzero;stroke:none" />
  <path
     inkscape:connector-curvature="0"
     id="path87"
     d="m 328.79687,731.29297 -24.37109,-0.15625 -18.32031,-30.42969 -51.61328,0 11.46875,-18.79687 28.83593,0 -18.95703,-31.37891 -49.0664,80.60547 -24.375,0 L 241.5,632.84766 c 1.48828,-2.55079 3.55859,-4.88282 6.21484,-7.01172 3.1875,-2.4375 6.05469,-3.66407 8.60157,-3.66407 2.76171,0 5.6289,1.17188 8.60156,3.50782 2.55078,2.01953 4.62109,4.40625 6.21094,7.16797 l 57.66796,98.44531"
     style="fill:#2e3391;fill-opacity:1;fill-rule:nonzero;stroke:none" />
  <path
     inkscape:connector-curvature="0"
     id="path89"
     d="m 448.11328,731.29297 -27.87891,0 -54.0039,-45.08203 c -3.71875,-3.1836 -5.57422,-6.10547 -5.57422,-8.75782 0,-2.55078 1.85547,-5.41796 5.57422,-8.60546 l 54.0039,-46.35547 27.87891,0 -64.83594,55.4375 z m -90.96094,0 -18.95703,0 0,-108.80078 18.95703,0 0,108.80078"
     style="fill:#2e3391;fill-opacity:1;fill-rule:nonzero;stroke:none" />
  <path
     inkscape:connector-curvature="0"
     id="path91"
     d="m 549.10937,685.57812 -62.125,0 0,-18.95703 62.125,0 z m 4.94141,45.71485 -93.98828,0 0,-108.80078 93.98828,0 0,18.95703 -75.03125,0 0,70.88672 75.03125,0 0,18.95703"
     style="fill:#2e3391;fill-opacity:1;fill-rule:nonzero;stroke:none" />
  <path
     inkscape:connector-curvature="0"
     id="path93"
     d="m 702.67578,731.29297 -28.03516,0 -30.42968,-30.58594 -40.94141,0 0,-18.79687 50.97656,0 c 7.00782,0 12.90625,-1.53516 17.6836,-4.61719 5.41797,-3.60938 8.125,-8.76172 8.125,-15.45313 0,-13.59375 -8.60157,-20.39062 -25.8086,-20.39062 l -62.125,0 0,89.84375 -18.95703,0 0,-108.80078 78.0586,0 c 14.01953,0 25.32812,3.02734 33.92968,9.08203 9.87891,6.90234 14.81641,17.04297 14.81641,30.42578 0,9.13281 -2.86719,16.99219 -8.60547,23.57812 -5.30859,6.15625 -12.53125,10.46094 -21.66406,12.90235 l 32.97656,32.8125"
     style="fill:#2e3391;fill-opacity:1;fill-rule:nonzero;stroke:none" />
  <path
     inkscape:connector-curvature="0"
     id="path95"
     d="m 887.14062,697.67969 c 0,10.30468 -3.66015,18.58984 -10.99218,24.85547 -7.00782,5.83984 -15.76953,8.75781 -26.28516,8.75781 l -82.99219,0 0,-18.95703 82.99219,0 c 5.20313,0 9.71875,-1.16407 13.54297,-3.50391 4.35547,-2.86719 6.53516,-6.74219 6.53516,-11.625 0,-4.88672 -2.23438,-8.66016 -6.69141,-11.3125 -3.72266,-2.23047 -8.18359,-3.34375 -13.38672,-3.34375 l -51.29297,0 c -9.45312,0 -17.36328,-2.60156 -23.73437,-7.80859 -6.79688,-5.625 -10.19532,-13.0625 -10.19532,-22.30078 0,-9.13282 3.39844,-16.51563 10.19532,-22.14454 6.37109,-5.20312 14.28125,-7.80468 23.73437,-7.80468 l 82.03906,0 0,18.95703 -82.03906,0 c -3.60937,0 -6.6914,1.00781 -9.23828,3.02734 -2.54687,2.01953 -3.82422,4.72656 -3.82422,8.125 0,3.50391 1.27735,6.21094 3.82422,8.1211 2.54688,1.91406 5.62891,2.86718 9.23828,2.86718 l 51.29297,0 c 10.51563,0 19.27734,3.03125 26.28516,9.08203 7.33203,6.3711 10.99218,14.71094 10.99218,25.00782"
     style="fill:#b0b0ae;fill-opacity:1;fill-rule:nonzero;stroke:none" />
  <path
     inkscape:connector-curvature="0"
     id="path97"
     d="m 1022.2266,677.29297 c 0,-10.51563 -3.3711,-19.11719 -10.1094,-25.8086 -6.75,-6.6914 -15.37501,-10.03515 -25.88673,-10.03515 l -30.42969,0 c -10.41016,0 -18.98437,3.34375 -25.72656,10.03515 -6.7461,6.69141 -10.11328,15.29297 -10.11328,25.8086 0,10.41015 3.36718,18.85156 10.11328,25.32812 6.74219,6.48047 15.3164,9.71485 25.72656,9.71485 l 30.42969,0 c 10.51172,0 19.13673,-3.23438 25.88673,-9.71485 6.7383,-6.47656 10.1094,-14.91797 10.1094,-25.32812 z m 18.8007,-1.59375 c 0,16.03515 -5.1523,29.30859 -15.4531,39.82422 -10.2969,10.51562 -23.418,15.76953 -39.34373,15.76953 l -30.42969,0 c -15.82422,0 -28.91016,-5.25391 -39.26562,-15.76953 -10.35547,-10.51563 -15.53125,-23.78907 -15.53125,-39.82422 0,-15.92969 5.12109,-28.77735 15.37109,-38.55078 10.24609,-9.76953 23.39062,-14.65625 39.42578,-14.65625 l 30.42969,0 c 16.14453,0 29.30473,4.88672 39.50393,14.65625 10.2031,9.77343 15.2929,22.62109 15.2929,38.55078"
     style="fill:#b0b0ae;fill-opacity:1;fill-rule:nonzero;stroke:none" />
  <path
     inkscape:connector-curvature="0"
     id="path99"
     d="m 1170.2227,731.29297 -61.3321,0 c -15.8281,0 -28.914,-5.25391 -39.2656,-15.76953 -10.3594,-10.51563 -15.5312,-23.78907 -15.5312,-39.82422 0,-15.92969 5.121,-28.77735 15.371,-38.55078 10.25,-9.76953 23.3946,-14.65625 39.4258,-14.65625 l 61.3321,0 0,18.95703 -61.3321,0 c -10.4062,0 -18.9804,3.34375 -25.7304,10.03515 -6.7461,6.69141 -10.1133,15.29297 -10.1133,25.8086 0,10.41015 3.3672,18.85156 10.1133,25.32812 6.75,6.48047 15.3242,9.71485 25.7304,9.71485 l 61.3321,0 0,18.95703"
     style="fill:#b0b0ae;fill-opacity:1;fill-rule:nonzero;stroke:none" />
  <path
     inkscape:connector-curvature="0"
     id="path101"
     d="m 1191.4063,731.29297 18.9609,0 0,-108.80078 -18.9609,0 z m 0,0"
     style="fill:#b0b0ae;fill-opacity:1;fill-rule:nonzero;stroke:none" />
  <path
     inkscape:connector-curvature="0"
     id="path103"
     d="m 1325.0703,685.57812 -62.1406,0 0,-18.95703 62.1406,0 z m 4.9336,45.71485 -93.9922,0 0,-108.80078 93.9922,0 0,18.95703 -75.043,0 0,70.88672 75.043,0 0,18.95703"
     style="fill:#b0b0ae;fill-opacity:1;fill-rule:nonzero;stroke:none" />
  <path
     inkscape:connector-curvature="0"
     id="path105"
     d="m 1449.1523,641.44922 -42.8437,0 0,89.84375 -18.8086,0 0,-89.84375 -43.0078,0 0,-18.95703 104.6601,0 0,18.95703"
     style="fill:#b0b0ae;fill-opacity:1;fill-rule:nonzero;stroke:none" />
  <path
     inkscape:connector-curvature="0"
     id="path107"
     d="m 1580.8945,622.49219 -54,72.80078 0,36 -18.7968,0 0,-36.31641 -55.4454,-72.48437 24.3829,0 40.9414,53.52343 38.3867,-53.52343 24.5312,0"
     style="fill:#b0b0ae;fill-opacity:1;fill-rule:nonzero;stroke:none" />
  <g
     style="clip-rule:nonzero"
     id="g109"
     clip-path="url(#clip1)">
    <path
       inkscape:connector-curvature="0"
       id="path111"
       d="m 11.292969,763.61328 0,9.94531 28.855469,0 c 2.148437,0 3.972656,0.16797 5.464843,0.49219 1.496094,0.33203 2.691407,0.89844 3.585938,1.70313 0.898437,0.80859 1.539062,1.92578 1.925781,3.36328 0.390625,1.43359 0.585938,3.22656 0.585938,5.3789 l 0,6.35938 c 0,2.15234 -0.195313,3.9414 -0.585938,5.375 -0.386719,1.43359 -1.027344,2.55859 -1.925781,3.36328 -0.894531,0.80469 -2.089844,1.375 -3.585938,1.70312 -1.492187,0.32813 -3.316406,0.49219 -5.464843,0.49219 l -28.589844,0 c -2.148438,0 -3.972656,-0.16406 -5.464844,-0.49219 -1.492188,-0.32812 -2.6875,-0.89843 -3.585938,-1.70312 C 1.613281,798.78906 0.96875,797.66406 0.582031,796.23047 0.191406,794.79687 0,793.00781 0,790.85547 l 0,-1.25391 9.496094,-1.97265 0,5.46875 32.710937,0 0,-10.57422 -28.855469,0 c -2.148437,0 -3.957031,-0.16407 -5.421874,-0.4961 -1.464844,-0.32422 -2.640626,-0.89453 -3.539063,-1.69922 -0.894531,-0.80859 -1.539063,-1.92968 -1.925781,-3.36328 -0.390625,-1.43359 -0.582032,-3.22265 -0.582032,-5.375 l 0,-5.10937 c 0,-2.14844 0.191407,-3.94141 0.582032,-5.375 0.386718,-1.4375 1.03125,-2.5586 1.925781,-3.36328 0.898437,-0.80469 2.074219,-1.375 3.539063,-1.70313 1.464843,-0.32812 3.273437,-0.49219 5.421874,-0.49219 l 26.261719,0 c 2.027344,0 3.773438,0.15235 5.238281,0.44922 1.464844,0.29688 2.660157,0.83594 3.585938,1.61328 0.925781,0.77735 1.597656,1.82032 2.015625,3.13672 0.417969,1.3125 0.628906,2.95703 0.628906,4.92578 l 0,0.98829 -9.5,2.24218 0,-5.28906 -30.289062,0"
       style="fill:#2e3391;fill-opacity:1;fill-rule:nonzero;stroke:none" />
  </g>
  <g
     style="clip-rule:nonzero"
     id="g113"
     clip-path="url(#clip2)">
    <path
       inkscape:connector-curvature="0"
       id="path115"
       d="m 75.816406,755.54687 47.316404,0 0,7.88672 -36.562498,0 0,10.3086 21.328128,0 0,7.88281 -21.328128,0 0,11.47266 37.011718,0 0,8.6914 -47.765624,0 0,-46.24219"
       style="fill:#2e3391;fill-opacity:1;fill-rule:nonzero;stroke:none" />
  </g>
  <g
     style="clip-rule:nonzero"
     id="g117"
     clip-path="url(#clip3)">
    <path
       inkscape:connector-curvature="0"
       id="path119"
       d="m 134.15625,755.54687 12.27344,0 18.73047,33.42579 17.83593,-33.42579 10.75391,0 -25.45313,46.24219 -7.4375,0 -26.70312,-46.24219"
       style="fill:#2e3391;fill-opacity:1;fill-rule:nonzero;stroke:none" />
  </g>
  <g
     style="clip-rule:nonzero"
     id="g121"
     clip-path="url(#clip4)">
    <path
       inkscape:connector-curvature="0"
       id="path123"
       d="m 208.08984,801.78906 10.75391,0 0,-46.24219 -10.75391,0 z m 0,0"
       style="fill:#2e3391;fill-opacity:1;fill-rule:nonzero;stroke:none" />
  </g>
  <g
     style="clip-rule:nonzero"
     id="g125"
     clip-path="url(#clip5)">
    <path
       inkscape:connector-curvature="0"
       id="path127"
       d="m 244.29297,755.54687 10.7539,0 0,37.55079 34.67969,0 0,8.6914 -45.43359,0 0,-46.24219"
       style="fill:#2e3391;fill-opacity:1;fill-rule:nonzero;stroke:none" />
  </g>
  <g
     style="clip-rule:nonzero"
     id="g129"
     clip-path="url(#clip6)">
    <path
       inkscape:connector-curvature="0"
       id="path131"
       d="m 307.29297,755.54687 10.75781,0 0,37.55079 34.67969,0 0,8.6914 -45.4375,0 0,-46.24219"
       style="fill:#2e3391;fill-opacity:1;fill-rule:nonzero;stroke:none" />
  </g>
  <g
     style="clip-rule:nonzero"
     id="g133"
     clip-path="url(#clip7)">
    <path
       inkscape:connector-curvature="0"
       id="path135"
       d="m 402.37891,783.32812 -9.94922,-18.8164 -10.30469,18.8164 z m -14.78907,-27.78125 10.39844,0 26.52344,46.24219 -12.09766,0 -5.55078,-10.125 -29.30859,0 -5.375,10.125 -10.75391,0 26.16406,-46.24219"
       style="fill:#2e3391;fill-opacity:1;fill-rule:nonzero;stroke:none" />
  </g>
  <g
     style="clip-rule:nonzero"
     id="g137"
     clip-path="url(#clip8)">
    <path
       inkscape:connector-curvature="0"
       id="path139"
       d="m 469.32031,755.54687 11.11328,0 11.73828,31.00782 12.28125,-31.00782 7.52735,0 12.54297,31.00782 11.20312,-31.00782 9.58985,0 -17.83204,46.24219 -7.26171,0 -12.72657,-31.99219 -12.90234,31.99219 -7.4375,0 -17.83594,-46.24219"
       style="fill:#2e3391;fill-opacity:1;fill-rule:nonzero;stroke:none" />
  </g>
  <g
     style="clip-rule:nonzero"
     id="g141"
     clip-path="url(#clip9)">
    <path
       inkscape:connector-curvature="0"
       id="path143"
       d="m 594.51953,783.32812 -9.94922,-18.8164 -10.30859,18.8164 z m -14.78906,-27.78125 10.39453,0 26.52734,46.24219 -12.09765,0 -5.55469,-10.125 -29.30469,0 -5.3789,10.125 -10.75391,0 26.16797,-46.24219"
       style="fill:#2e3391;fill-opacity:1;fill-rule:nonzero;stroke:none" />
  </g>
  <g
     style="clip-rule:nonzero"
     id="g145"
     clip-path="url(#clip10)">
    <path
       inkscape:connector-curvature="0"
       id="path147"
       d="m 643.08984,763.61328 0,9.94531 28.85547,0 c 2.15235,0 3.97266,0.16797 5.46485,0.49219 1.49609,0.33203 2.6914,0.89844 3.58593,1.70313 0.89844,0.80859 1.53907,1.92578 1.92578,3.36328 0.39063,1.43359 0.58594,3.22656 0.58594,5.3789 l 0,6.35938 c 0,2.15234 -0.19531,3.9414 -0.58594,5.375 -0.38671,1.43359 -1.02734,2.55859 -1.92578,3.36328 -0.89453,0.80469 -2.08984,1.375 -3.58593,1.70312 -1.49219,0.32813 -3.3125,0.49219 -5.46485,0.49219 l -28.58984,0 c -2.14844,0 -3.97266,-0.16406 -5.46485,-0.49219 -1.49218,-0.32812 -2.6875,-0.89843 -3.58203,-1.70312 -0.89843,-0.80469 -1.54297,-1.92969 -1.92968,-3.36328 -0.38672,-1.4336 -0.58204,-3.22266 -0.58204,-5.375 l 0,-1.25391 9.4961,-1.97265 0,5.46875 32.71484,0 0,-10.57422 -28.85937,0 c -2.14844,0 -3.95703,-0.16407 -5.42188,-0.4961 -1.46484,-0.32422 -2.64453,-0.89453 -3.53906,-1.69922 -0.89453,-0.80859 -1.53906,-1.92968 -1.92578,-3.36328 -0.39063,-1.43359 -0.58203,-3.22265 -0.58203,-5.375 l 0,-5.10937 c 0,-2.14844 0.1914,-3.94141 0.58203,-5.375 0.38672,-1.4375 1.03125,-2.5586 1.92578,-3.36328 0.89453,-0.80469 2.07422,-1.375 3.53906,-1.70313 1.46485,-0.32812 3.27344,-0.49219 5.42188,-0.49219 l 26.26172,0 c 2.02734,0 3.77343,0.15235 5.23828,0.44922 1.46484,0.29688 2.66015,0.83594 3.58593,1.61328 0.92579,0.77735 1.60157,1.82032 2.01563,3.13672 0.41797,1.3125 0.62891,2.95703 0.62891,4.92578 l 0,0.98829 -9.5,2.24218 0,-5.28906 -30.28907,0"
       style="fill:#2e3391;fill-opacity:1;fill-rule:nonzero;stroke:none" />
  </g>
  <g
     style="clip-rule:nonzero"
     id="g149"
     clip-path="url(#clip11)">
    <path
       inkscape:connector-curvature="0"
       id="path151"
       d="m 707.52344,755.54687 7.34765,0 32.53125,27.2461 c 0.95703,0.77344 1.86719,1.5664 2.73047,2.375 0.86719,0.80469 1.71875,1.6875 2.55469,2.64062 -0.11719,-1.91015 -0.22266,-3.53906 -0.3125,-4.88281 -0.0898,-1.34375 -0.13672,-2.375 -0.13672,-3.09375 l 0,-24.28516 9.68359,0 0,46.24219 -7.35156,0 -33.96484,-28.58594 c -0.66016,-0.59765 -1.30078,-1.19531 -1.92578,-1.79296 -0.625,-0.59766 -1.26953,-1.25391 -1.92578,-1.97266 0.17968,1.79297 0.29687,3.30078 0.35546,4.52734 0.0625,1.22657 0.0937,2.16407 0.0937,2.82032 l 0,25.0039 -9.67968,0 0,-46.24219"
       style="fill:#2e3391;fill-opacity:1;fill-rule:nonzero;stroke:none" />
  </g>
  <path
     inkscape:connector-curvature="0"
     id="path153"
     d="m 779.39453,763.25391 6.09375,0 0,-24.28516 -6.09375,0 z m 0,0"
     style="fill:#2e3391;fill-opacity:1;fill-rule:nonzero;stroke:none" />
  <g
     style="clip-rule:nonzero"
     id="g155"
     clip-path="url(#clip12)">
    <path
       inkscape:connector-curvature="0"
       id="path157"
       d="m 824.47266,801.78906 -10.75391,0 0,-37.99609 -21.24219,0 0,-8.2461 53.32422,0 0,8.2461 -21.32812,0 0,37.99609"
       style="fill:#2e3391;fill-opacity:1;fill-rule:nonzero;stroke:none" />
  </g>
  <g
     style="clip-rule:nonzero"
     id="g159"
     clip-path="url(#clip13)">
    <path
       inkscape:connector-curvature="0"
       id="path161"
       d="m 907.81641,781.71484 0,11.73828 24.55468,0 c 1.85157,0 3.1836,-0.25 3.98828,-0.76171 0.80469,-0.50391 1.21094,-1.625 1.21094,-3.35938 l 0,-3.49219 c 0,-1.73437 -0.40625,-2.85547 -1.21094,-3.36328 -0.80468,-0.50781 -2.13671,-0.76172 -3.98828,-0.76172 z m 0,-18.64062 0,11.02344 24.55468,0 c 1.67188,0 2.91016,-0.20704 3.71875,-0.62891 0.8086,-0.41406 1.20703,-1.3125 1.20703,-2.6875 l 0,-4.39063 c 0,-1.375 -0.39843,-2.26953 -1.20703,-2.6875 -0.80859,-0.41796 -2.04687,-0.6289 -3.71875,-0.6289 z m -10.57813,-7.52735 39.61328,0 c 3.58594,0 6.21094,0.6875 7.88672,2.0625 1.67188,1.375 2.50781,3.67188 2.50781,6.90235 l 0,5.64453 c 0,2.26953 -0.6875,4.0625 -2.0625,5.375 -1.37109,1.31641 -3.34375,2.12109 -5.91406,2.42187 2.6875,0.35547 4.75391,1.29688 6.18359,2.82032 1.4375,1.52343 2.15235,3.54297 2.15235,6.05078 l 0,5.91406 c 0,6.03516 -4.54297,9.05078 -13.6211,9.05078 l -36.74609,0 0,-46.24219"
       style="fill:#2e3391;fill-opacity:1;fill-rule:nonzero;stroke:none" />
  </g>
  <g
     style="clip-rule:nonzero"
     id="g163"
     clip-path="url(#clip14)">
    <path
       inkscape:connector-curvature="0"
       id="path165"
       d="m 980.94141,793.09766 30.65629,0 0,-37.55079 10.75,0 0,35.3086 c 0,2.15234 -0.1915,3.9414 -0.5821,5.375 -0.3906,1.43359 -1.0312,2.55859 -1.9297,3.36328 -0.8906,0.80469 -2.0781,1.375 -3.539,1.70312 -1.461,0.32813 -3.2696,0.49219 -5.4219,0.49219 l -29.21484,0 c -2.14844,0 -3.96094,-0.16406 -5.42188,-0.49219 -1.46484,-0.32812 -2.64453,-0.89843 -3.53906,-1.70312 -0.89844,-0.80469 -1.53906,-1.92969 -1.92969,-3.36328 -0.38672,-1.4336 -0.58203,-3.22266 -0.58203,-5.375 l 0,-35.3086 10.75391,0 0,37.55079"
       style="fill:#2e3391;fill-opacity:1;fill-rule:nonzero;stroke:none" />
  </g>
  <g
     style="clip-rule:nonzero"
     id="g167"
     clip-path="url(#clip15)">
    <path
       inkscape:connector-curvature="0"
       id="path169"
       d="m 1047.7969,801.78906 10.75,0 0,-46.24219 -10.75,0 z m 0,0"
       style="fill:#2e3391;fill-opacity:1;fill-rule:nonzero;stroke:none" />
  </g>
  <g
     style="clip-rule:nonzero"
     id="g171"
     clip-path="url(#clip16)">
    <path
       inkscape:connector-curvature="0"
       id="path173"
       d="m 1084.0039,755.54687 10.7539,0 0,37.55079 34.6836,0 0,8.6914 -45.4375,0 0,-46.24219"
       style="fill:#2e3391;fill-opacity:1;fill-rule:nonzero;stroke:none" />
  </g>
  <g
     style="clip-rule:nonzero"
     id="g175"
     clip-path="url(#clip17)">
    <path
       inkscape:connector-curvature="0"
       id="path177"
       d="m 1168.5039,801.78906 -10.7539,0 0,-37.99609 -21.2383,0 0,-8.2461 53.3203,0 0,8.2461 -21.3281,0 0,37.99609"
       style="fill:#2e3391;fill-opacity:1;fill-rule:nonzero;stroke:none" />
  </g>
  <g
     style="clip-rule:nonzero"
     id="g179"
     clip-path="url(#clip18)">
    <path
       inkscape:connector-curvature="0"
       id="path181"
       d="m 1273.3594,783.32812 -9.9453,-18.8164 -10.3086,18.8164 z m -14.7813,-27.78125 10.3867,0 26.5313,46.24219 -12.1055,0 -5.5508,-10.125 -29.3046,0 -5.375,10.125 -10.7539,0 26.1718,-46.24219"
       style="fill:#2e3391;fill-opacity:1;fill-rule:nonzero;stroke:none" />
  </g>
  <g
     style="clip-rule:nonzero"
     id="g183"
     clip-path="url(#clip19)">
    <path
       inkscape:connector-curvature="0"
       id="path185"
       d="m 1312.168,755.54687 10.7539,0 0,37.55079 34.6797,0 0,8.6914 -45.4336,0 0,-46.24219"
       style="fill:#2e3391;fill-opacity:1;fill-rule:nonzero;stroke:none" />
  </g>
  <g
     style="clip-rule:nonzero"
     id="g187"
     clip-path="url(#clip20)">
    <path
       inkscape:connector-curvature="0"
       id="path189"
       d="m 1420.4219,793.09766 0,-29.30469 -35.4922,0 0,29.30469 z m -46.2344,-26.61719 c 0,-2.14844 0.1836,-3.94141 0.5703,-5.375 0.4024,-1.4375 1.0391,-2.5586 1.9336,-3.36328 0.8984,-0.80469 2.0742,-1.375 3.5313,-1.70313 1.4687,-0.32812 3.2812,-0.49219 5.4296,-0.49219 l 34.0586,0 c 2.1485,0 3.9493,0.16407 5.4063,0.49219 1.4805,0.32813 2.6562,0.89844 3.543,1.70313 0.9062,0.80468 1.5429,1.92578 1.9336,3.36328 0.3867,1.43359 0.582,3.22656 0.582,5.375 l 0,24.375 c 0,2.15234 -0.1953,3.9414 -0.582,5.375 -0.3907,1.43359 -1.0274,2.55859 -1.9336,3.36328 -0.8868,0.80469 -2.0625,1.375 -3.543,1.70312 -1.457,0.32813 -3.2578,0.49219 -5.4063,0.49219 l -34.0586,0 c -2.1484,0 -3.9609,-0.16406 -5.4296,-0.49219 -1.4571,-0.32812 -2.6329,-0.89843 -3.5313,-1.70312 -0.8945,-0.80469 -1.5312,-1.92969 -1.9336,-3.36328 -0.3867,-1.4336 -0.5703,-3.22266 -0.5703,-5.375 l 0,-24.375"
       style="fill:#2e3391;fill-opacity:1;fill-rule:nonzero;stroke:none" />
  </g>
  <g
     style="clip-rule:nonzero"
     id="g191"
     clip-path="url(#clip21)">
    <path
       inkscape:connector-curvature="0"
       id="path193"
       d="m 1455.5586,755.54687 7.3398,0 32.5352,27.2461 c 0.9492,0.77344 1.8555,1.5664 2.7305,2.375 0.875,0.80469 1.7148,1.6875 2.5468,2.64062 -0.1171,-1.91015 -0.2148,-3.53906 -0.3125,-4.88281 -0.086,-1.34375 -0.1289,-2.375 -0.1289,-3.09375 l 0,-24.28516 9.6836,0 0,46.24219 -7.3515,0 -33.9688,-28.58594 c -0.6601,-0.59765 -1.2969,-1.19531 -1.9336,-1.79296 -0.6133,-0.59766 -1.25,-1.25391 -1.9101,-1.97266 0.1718,1.79297 0.2929,3.30078 0.3554,4.52734 0.055,1.22657 0.086,2.16407 0.086,2.82032 l 0,25.0039 -9.6719,0 0,-46.24219"
       style="fill:#2e3391;fill-opacity:1;fill-rule:nonzero;stroke:none" />
  </g>
  <g
     style="clip-rule:nonzero"
     id="g195"
     clip-path="url(#clip22)">
    <path
       inkscape:connector-curvature="0"
       id="path197"
       d="m 1535.3164,755.54687 47.3164,0 0,7.88672 -36.5703,0 0,10.3086 21.3359,0 0,7.88281 -21.3359,0 0,11.47266 37.0117,0 0,8.6914 -47.7578,0 0,-46.24219"
       style="fill:#2e3391;fill-opacity:1;fill-rule:nonzero;stroke:none" />
  </g>
</svg>
